<?xml version="1.0" encoding="UTF-8"?>
<svg version="1.1" xmlns="http://www.w3.org/2000/svg" width="512" height="512">
<path d="M0 0 C168.96 0 337.92 0 512 0 C512 168.96 512 337.92 512 512 C343.04 512 174.08 512 0 512 C0 343.04 0 174.08 0 0 Z " fill="#272727" transform="translate(0,0)"/>
<path d="M0 0 C0.94182129 -0.00064453 1.88364258 -0.00128906 2.85400391 -0.00195312 C11.82581845 0.06442654 20.62077638 0.9597555 29.5 2.1875 C29.5 2.8475 29.5 3.5075 29.5 4.1875 C30.7065625 4.31125 30.7065625 4.31125 31.9375 4.4375 C40.39834088 6.21872966 47.92648946 10.61579796 54.5 16.1875 C54.5 16.8475 54.5 17.5075 54.5 18.1875 C55.0775 18.249375 55.655 18.31125 56.25 18.375 C59.40643986 19.5148255 60.53367464 21.52344629 62.5 24.1875 C63.83378575 26.0229799 63.83378575 26.0229799 65.5 27.1875 C68.12570704 27.43819913 68.12570704 27.43819913 70.5 27.1875 C70.5 26.1975 70.5 25.2075 70.5 24.1875 C73.83333333 21.1875 73.83333333 21.1875 76.5 21.1875 C76.5 20.5275 76.5 19.8675 76.5 19.1875 C77.8125 17.5625 77.8125 17.5625 79.5 16.1875 C80.49 16.1875 81.48 16.1875 82.5 16.1875 C82.5 15.5275 82.5 14.8675 82.5 14.1875 C84.76727333 13.01342979 87.03834624 11.84810261 89.3125 10.6875 C89.95509766 10.35363281 90.59769531 10.01976562 91.25976562 9.67578125 C94.19547699 8.18510916 96.16126517 7.1875 99.5 7.1875 C99.5 6.5275 99.5 5.8675 99.5 5.1875 C103.955 4.6925 103.955 4.6925 108.5 4.1875 C108.5 3.5275 108.5 2.8675 108.5 2.1875 C125.11415007 -0.93986943 141.87138779 -0.67333651 158.5 2.1875 C158.5 2.8475 158.5 3.5075 158.5 4.1875 C161.14 4.5175 163.78 4.8475 166.5 5.1875 C166.5 5.8475 166.5 6.5075 166.5 7.1875 C168.48 7.5175 170.46 7.8475 172.5 8.1875 C172.5 8.8475 172.5 9.5075 172.5 10.1875 C173.49 10.1875 174.48 10.1875 175.5 10.1875 C175.5 10.8475 175.5 11.5075 175.5 12.1875 C176.469375 12.31125 177.43875 12.435 178.4375 12.5625 C179.9534375 12.871875 179.9534375 12.871875 181.5 13.1875 C181.83 13.8475 182.16 14.5075 182.5 15.1875 C183.7375 15.8990625 183.7375 15.8990625 185 16.625 C187.5 18.1875 187.5 18.1875 188.5 21.1875 C191.00447516 22.40619929 191.00447516 22.40619929 193.5 23.1875 C193.5 23.8475 193.5 24.5075 193.5 25.1875 C194.49 25.5175 195.48 25.8475 196.5 26.1875 C196.5 26.8475 196.5 27.5075 196.5 28.1875 C197.16 28.1875 197.82 28.1875 198.5 28.1875 C202.5 32.54044118 202.5 32.54044118 202.5 36.1875 C203.49 36.5175 204.48 36.8475 205.5 37.1875 C206.53485877 39.50558364 207.5355414 41.83925298 208.5 44.1875 C209.16 44.5175 209.82 44.8475 210.5 45.1875 C211.24609375 47.19140625 211.24609375 47.19140625 211.9375 49.75 C212.84906729 53.00758058 213.83327049 56.12464471 215.125 59.25 C218.23036503 67.41157651 217.64856616 76.50854998 217.64526367 85.10766602 C217.65030159 87.00693848 217.65030159 87.00693848 217.65544128 88.94458008 C217.66421386 92.39282632 217.66661642 95.84104769 217.66725707 99.28930402 C217.66797097 101.44811523 217.6701116 103.60692024 217.67275429 105.7657299 C217.68198263 113.30923739 217.68609199 120.85272729 217.68530273 128.39624023 C217.68470136 135.40985661 217.69527135 142.42339623 217.7110464 149.43699318 C217.72414439 155.47716842 217.72948574 161.51731861 217.72884732 167.55750793 C217.72859317 171.15705986 217.73139906 174.75654334 217.74202538 178.35608101 C217.75355315 182.36968328 217.74894575 186.3831142 217.74291992 190.39672852 C217.74853943 191.57877365 217.75415894 192.76081879 217.75994873 193.97868347 C217.72467675 203.23078116 217.03046723 211.15035859 210.5 218.1875 C207.9375 219.9375 207.9375 219.9375 205.5 221.1875 C204.84 221.744375 204.18 222.30125 203.5 222.875 C201.01448445 224.50611958 199.41524679 224.43043723 196.5 224.1875 C196.5 224.8475 196.5 225.5075 196.5 226.1875 C190.56 226.1875 184.62 226.1875 178.5 226.1875 C178.5 225.5275 178.5 224.8675 178.5 224.1875 C176.52 223.8575 174.54 223.5275 172.5 223.1875 C172.5 222.5275 172.5 221.8675 172.5 221.1875 C170.85 220.8575 169.2 220.5275 167.5 220.1875 C167.17 218.5375 166.84 216.8875 166.5 215.1875 C165.51 214.8575 164.52 214.5275 163.5 214.1875 C163.5 213.5275 163.5 212.8675 163.5 212.1875 C162.84 212.1875 162.18 212.1875 161.5 212.1875 C161.5 211.1975 161.5 210.2075 161.5 209.1875 C160.84 209.1875 160.18 209.1875 159.5 209.1875 C158.49502329 206.17256987 158.37060018 204.15941178 158.36196899 201.00773621 C158.35651566 199.93527145 158.35106232 198.8628067 158.34544373 197.75784302 C158.3444014 196.58116058 158.34335907 195.40447815 158.34228516 194.19213867 C158.33720444 192.95288132 158.33212372 191.71362396 158.32688904 190.43681335 C158.31617462 187.74073548 158.30717685 185.04470926 158.30076981 182.34862328 C158.29008264 178.08306649 158.26983557 173.81758881 158.24765015 169.55207825 C158.185751 157.42236966 158.13172948 145.2926657 158.09863281 133.1628418 C158.08027432 126.46389727 158.05132326 119.76508529 158.0106281 113.06623822 C157.98957899 109.52254602 157.97410383 105.97902069 157.97182083 102.43526268 C157.96926996 98.48038463 157.94378626 94.52583355 157.91650391 90.57104492 C157.91951004 89.40043518 157.92251617 88.22982544 157.9256134 87.02374268 C157.86623015 81.23731184 157.5921951 77.25077021 154.5 72.1875 C154.5 71.1975 154.5 70.2075 154.5 69.1875 C153.84 69.1875 153.18 69.1875 152.5 69.1875 C150.90077897 67.72734167 149.46835918 66.15322244 148 64.5625 C146.4332241 62.938608 146.4332241 62.938608 143.5 62.1875 C143.5 61.5275 143.5 60.8675 143.5 60.1875 C142.695625 60.043125 141.89125 59.89875 141.0625 59.75 C138.5 59.1875 138.5 59.1875 137.5 58.1875 C135.06985841 58.06006575 132.68069765 58.00228879 130.25 58 C129.24646484 57.98163086 129.24646484 57.98163086 128.22265625 57.96289062 C124.15131449 57.95089256 121.19295036 58.53091056 117.5 60.1875 C116.51 60.1875 115.52 60.1875 114.5 60.1875 C114.17 61.1775 113.84 62.1675 113.5 63.1875 C112.84 63.1875 112.18 63.1875 111.5 63.1875 C111.17 64.1775 110.84 65.1675 110.5 66.1875 C109.84 66.1875 109.18 66.1875 108.5 66.1875 C108.5 66.8475 108.5 67.5075 108.5 68.1875 C107.125 69.8125 107.125 69.8125 105.5 71.1875 C104.84 71.1875 104.18 71.1875 103.5 71.1875 C103.17 73.1675 102.84 75.1475 102.5 77.1875 C101.84 77.1875 101.18 77.1875 100.5 77.1875 C98.67466105 84.19630808 98.20614851 90.62908271 98.21289062 97.85424805 C98.20605759 98.98709229 98.19922455 100.11993652 98.19218445 101.28710938 C98.17865453 103.7325869 98.1695641 106.17809225 98.16447449 108.62360191 C98.15615192 112.49483868 98.13561768 116.36584336 98.11193848 120.23701477 C98.05975394 129.1477859 98.02545066 138.05859338 97.99217987 146.9694519 C97.95900408 155.80084138 97.91815715 164.63209778 97.86405945 173.46338844 C97.84400559 177.27563123 97.83567608 181.08778568 97.82775879 184.90007019 C97.81478716 187.23636192 97.80126697 189.5726507 97.78710938 191.90893555 C97.78858223 193.49642357 97.78858223 193.49642357 97.79008484 195.11598206 C97.72464831 202.86489363 96.10933025 208.29696044 92.5 215.1875 C91.84 215.1875 91.18 215.1875 90.5 215.1875 C90.5 215.8475 90.5 216.5075 90.5 217.1875 C88.84997172 218.54136936 87.1825613 219.87428142 85.5 221.1875 C85.17 221.8475 84.84 222.5075 84.5 223.1875 C81.85139573 223.78105614 79.20802678 223.92959269 76.5 224.1875 C76.5 224.8475 76.5 225.5075 76.5 226.1875 C73.62442297 226.26888426 70.75117738 226.32817851 67.875 226.375 C67.06675781 226.40013672 66.25851563 226.42527344 65.42578125 226.45117188 C60.32310684 226.51339961 56.96860312 225.94241551 52.5 223.1875 C52.5 222.5275 52.5 221.8675 52.5 221.1875 C50.85 220.8575 49.2 220.5275 47.5 220.1875 C47.5 219.5275 47.5 218.8675 47.5 218.1875 C46.51 217.8575 45.52 217.5275 44.5 217.1875 C44.17 215.5375 43.84 213.8875 43.5 212.1875 C42.84 212.1875 42.18 212.1875 41.5 212.1875 C41.17 210.2075 40.84 208.2275 40.5 206.1875 C39.84 206.1875 39.18 206.1875 38.5 206.1875 C37.53196674 203.28340022 37.37527978 201.45374221 37.37542725 198.43447876 C37.37286423 197.45627167 37.37030121 196.47806458 37.36766052 195.47021484 C37.36976028 194.39803711 37.37186005 193.32585937 37.37402344 192.22119141 C37.3721553 191.09071381 37.37028717 189.96023621 37.36836243 188.79550171 C37.3643536 186.33518324 37.36228315 183.87486104 37.36190033 181.41453934 C37.35804437 175.4970291 37.33194542 169.57961372 37.30868387 163.66215587 C37.273657 154.58090886 37.24701085 145.49977725 37.24951172 136.41845703 C37.25127996 129.6326335 37.22681753 122.84727333 37.1876297 116.0615654 C37.17720326 113.48220221 37.17562073 110.90278673 37.18328094 108.32341385 C37.91399986 89.46500168 37.91399986 89.46500168 31.5 72.1875 C29.8494082 70.83431773 28.18521726 69.49730851 26.5 68.1875 C26.5 67.5275 26.5 66.8675 26.5 66.1875 C25.7575 65.89875 25.015 65.61 24.25 65.3125 C21.93260203 64.36447356 19.72082885 63.33904089 17.5 62.1875 C17.5 61.5275 17.5 60.8675 17.5 60.1875 C16.695625 60.043125 15.89125 59.89875 15.0625 59.75 C12.5 59.1875 12.5 59.1875 11.5 58.1875 C3.78779669 57.59860929 -2.45646716 57.99797569 -9.5 61.1875 C-10.16 61.1875 -10.82 61.1875 -11.5 61.1875 C-11.5 61.8475 -11.5 62.5075 -11.5 63.1875 C-12.49 63.1875 -13.48 63.1875 -14.5 63.1875 C-14.5 63.8475 -14.5 64.5075 -14.5 65.1875 C-15.875 66.8125 -15.875 66.8125 -17.5 68.1875 C-18.16 68.1875 -18.82 68.1875 -19.5 68.1875 C-19.70496094 68.80238281 -19.90992188 69.41726562 -20.12109375 70.05078125 C-21.24739583 73.4296875 -22.37369792 76.80859375 -23.5 80.1875 C-24.16 80.1875 -24.82 80.1875 -25.5 80.1875 C-25.49815641 80.8322613 -25.49631283 81.47702261 -25.49441338 82.14132214 C-25.45023868 97.83204608 -25.41714555 113.52274839 -25.39637566 129.2135191 C-25.38606445 136.80146709 -25.37200708 144.38937357 -25.34912109 151.97729492 C-25.32918246 158.59116529 -25.31628243 165.20500559 -25.31182301 171.81890517 C-25.30921643 175.3206958 -25.30309307 178.82240039 -25.28853989 182.32416344 C-25.27242288 186.23394759 -25.27202062 190.14364769 -25.27294922 194.0534668 C-25.26575867 195.21368347 -25.25856812 196.37390015 -25.25115967 197.5692749 C-25.253909 198.63633163 -25.25665833 199.70338837 -25.25949097 200.80278015 C-25.25764738 201.72733851 -25.25580379 202.65189688 -25.25390434 203.60447216 C-25.5258929 206.45927272 -26.31795251 208.58650703 -27.5 211.1875 C-27.809375 211.88875 -28.11875 212.59 -28.4375 213.3125 C-29.57874285 215.32645797 -30.72330251 216.70691876 -32.5 218.1875 C-33.16 218.1875 -33.82 218.1875 -34.5 218.1875 C-34.83 219.1775 -35.16 220.1675 -35.5 221.1875 C-36.16 221.1875 -36.82 221.1875 -37.5 221.1875 C-37.5 221.8475 -37.5 222.5075 -37.5 223.1875 C-46.32226536 227.10850683 -55.04165757 226.4629857 -64.5 226.1875 C-64.5 225.5275 -64.5 224.8675 -64.5 224.1875 C-65.551875 224.125625 -66.60375 224.06375 -67.6875 224 C-73.4077595 222.7809283 -76.37243512 218.96115165 -79.5 214.1875 C-79.5 213.5275 -79.5 212.8675 -79.5 212.1875 C-80.16 212.1875 -80.82 212.1875 -81.5 212.1875 C-81.83 210.2075 -82.16 208.2275 -82.5 206.1875 C-83.16 206.1875 -83.82 206.1875 -84.5 206.1875 C-84.5 159.9875 -84.5 113.7875 -84.5 66.1875 C-83.84 66.1875 -83.18 66.1875 -82.5 66.1875 C-82.44392578 65.24390625 -82.44392578 65.24390625 -82.38671875 64.28125 C-81.93322879 58.37698851 -80.82023086 53.63499854 -78.5 48.1875 C-77.84 48.1875 -77.18 48.1875 -76.5 48.1875 C-76.005 45.2175 -76.005 45.2175 -75.5 42.1875 C-74.84 42.1875 -74.18 42.1875 -73.5 42.1875 C-73.005 39.2175 -73.005 39.2175 -72.5 36.1875 C-71.84 36.1875 -71.18 36.1875 -70.5 36.1875 C-70.17 35.1975 -69.84 34.2075 -69.5 33.1875 C-68.84 33.1875 -68.18 33.1875 -67.5 33.1875 C-67.4071875 32.07375 -67.4071875 32.07375 -67.3125 30.9375 C-66.23716473 27.2979037 -64.53762847 26.39668434 -61.5 24.1875 C-60.778125 23.424375 -60.05625 22.66125 -59.3125 21.875 C-54.75162597 17.51683149 -46.94323947 10.1875 -40.5 10.1875 C-40.5 9.5275 -40.5 8.8675 -40.5 8.1875 C-39.59121094 7.93226563 -39.59121094 7.93226563 -38.6640625 7.671875 C-33.35340039 6.13586811 -28.33601214 4.36909131 -23.3125 2.0546875 C-15.86819532 -0.24063977 -7.72827199 -0.00557093 0 0 Z " fill="#EDEDED" transform="translate(185.5,140.8125)"/>
<path d="M0 0 C0.33 0 0.66 0 1 0 C1 13.2 1 26.4 1 40 C-12.2 40 -25.4 40 -39 40 C-35.77794772 38.38897386 -32.66489916 37.09649079 -29.3125 35.8125 C-17.05026283 30.68709346 -8.27521531 21.8875767 -3.0625 9.625 C-1.82512189 6.44556743 -0.74944353 3.32910707 0 0 Z " fill="#000000" transform="translate(511,472)"/>
<path d="M0 0 C1.61102614 3.22205228 2.90350921 6.33510084 4.1875 9.6875 C9.30463836 21.92995603 18.08393466 30.75497035 30.375 35.875 C31.35210938 36.24367188 32.32921875 36.61234375 33.3359375 36.9921875 C36 38 36 38 40 40 C26.8 40 13.6 40 0 40 C0 26.8 0 13.6 0 0 Z " fill="#000000" transform="translate(0,472)"/>
<path d="M0 0 C13.2 0 26.4 0 40 0 C40 13.2 40 26.4 40 40 C38.38897386 36.77794772 37.09649079 33.66489916 35.8125 30.3125 C30.69536164 18.07004397 21.91606534 9.24502965 9.625 4.125 C8.64789063 3.75632813 7.67078125 3.38765625 6.6640625 3.0078125 C4 2 4 2 0 0 Z " fill="#000000" transform="translate(472,0)"/>
<path d="M0 0 C13.2 0 26.4 0 40 0 C36.77794772 1.61102614 33.66489916 2.90350921 30.3125 4.1875 C18.07004397 9.30463836 9.24502965 18.08393466 4.125 30.375 C3.75632813 31.35210938 3.38765625 32.32921875 3.0078125 33.3359375 C2 36 2 36 0 40 C0 26.8 0 13.6 0 0 Z " fill="#000000" transform="translate(0,0)"/>
<path d="M0 0 C0.33 0.66 0.66 1.32 1 2 C-0.14339844 2.13277344 -1.28679687 2.26554688 -2.46484375 2.40234375 C-3.9557562 2.5805031 -5.44664018 2.75890082 -6.9375 2.9375 C-7.69224609 3.02451172 -8.44699219 3.11152344 -9.22460938 3.20117188 C-12.92187458 3.34324099 -12.92187458 3.34324099 -16 5 C-18.33297433 5.04092937 -20.66705225 5.04241723 -23 5 C-16.77868809 -1.22131191 -8.14697954 -0.33531776 0 0 Z " fill="#4F4F4F" transform="translate(197,198)"/>
<path d="M0 0 C-3.515625 4.6875 -3.515625 4.6875 -5 6 C-6.32 6 -7.64 6 -9 6 C-8.67 4.68 -8.34 3.36 -8 2 C-7.34 2 -6.68 2 -6 2 C-6 1.34 -6 0.68 -6 0 C-3 -1 -3 -1 0 0 Z " fill="#313131" transform="translate(177,204)"/>
<path d="M0 0 C0.80824219 0.10183594 1.61648437 0.20367187 2.44921875 0.30859375 C3.06410156 0.39238281 3.67898437 0.47617188 4.3125 0.5625 C1.4129339 2.22126079 -0.60385209 2.7986216 -3.9375 2.6875 C-5.79375 2.625625 -5.79375 2.625625 -7.6875 2.5625 C-7.6875 1.9025 -7.6875 1.2425 -7.6875 0.5625 C-4.59271121 -0.46909626 -3.16118607 -0.41232862 0 0 Z " fill="#323232" transform="translate(204.6875,139.4375)"/>
<path d="M0 0 C0 0.66 0 1.32 0 2 C-5.29411765 6 -5.29411765 6 -9 6 C-8.67 5.01 -8.34 4.02 -8 3 C-7.01 3 -6.02 3 -5 3 C-5 2.34 -5 1.68 -5 1 C-2 0 -2 0 0 0 Z " fill="#D1D1D1" transform="translate(290,145)"/>
<path d="M0 0 C0 0.99 0 1.98 0 3 C-5.625 5.125 -5.625 5.125 -9 4 C-7.68 3.67 -6.36 3.34 -5 3 C-5 2.34 -5 1.68 -5 1 C-3 0 -3 0 0 0 Z " fill="#C9C9C9" transform="translate(150,148)"/>
<path d="M0 0 C0.66 0.33 1.32 0.66 2 1 C2 1.66 2 2.32 2 3 C2.66 3 3.32 3 4 3 C4.33 4.32 4.66 5.64 5 7 C4.34 7 3.68 7 3 7 C3 6.34 3 5.68 3 5 C1.68 4.67 0.36 4.34 -1 4 C-0.67 2.68 -0.34 1.36 0 0 Z " fill="#525252" transform="translate(336,207)"/>
<path d="M0 0 C2.97 0 5.94 0 9 0 C8.67 0.66 8.34 1.32 8 2 C4.93090555 2.66719444 2.14213983 3 -1 3 C-0.67 2.01 -0.34 1.02 0 0 Z " fill="#D0D0D0" transform="translate(175,198)"/>
</svg>
