<svg width="518" height="133" viewBox="0 0 518 133" fill="none" xmlns="http://www.w3.org/2000/svg">
<g clip-path="url(#clip0_9_18)">
<mask id="mask0_9_18" style="mask-type:luminance" maskUnits="userSpaceOnUse" x="0" y="0" width="518" height="133">
<path d="M518 0H0V133H518V0Z" fill="white"/>
</mask>
<g mask="url(#mask0_9_18)">
<path d="M39.0899 35.41H37.3599C19.8699 35.41 5.69995 49.59 5.69995 67.07V116.75C5.69995 123.21 10.9299 128.44 17.3899 128.44H19.6599C26.0899 128.44 31.3099 123.25 31.3499 116.82L31.6399 71.7C31.6799 64.83 37.2699 59.28 44.1399 59.28C51.0799 59.28 56.6899 64.93 56.6399 71.86L56.3499 116.67C56.3099 123.16 61.5499 128.44 68.0399 128.44H69.3499C75.7899 128.44 81.0099 123.24 81.0399 116.8L81.2299 71.43C81.2599 64.71 86.7099 59.29 93.4299 59.29C100.2 59.29 105.67 64.8 105.63 71.56L105.34 116.68C105.3 123.17 110.54 128.45 117.03 128.45C123.52 128.45 128.76 123.17 128.72 116.69L128.4 66.88C128.29 49.47 114.15 35.42 96.7399 35.42C96.7399 35.42 78.9499 33.82 68.5799 47.86C68.5799 47.86 60.6999 35.42 39.0899 35.42V35.41Z" fill="black"/>
<path d="M182.88 35.41H181.59C157.32 35.41 137.65 55.08 137.65 79.35V85.88C137.65 109.39 156.71 128.44 180.21 128.44H184.25C207.76 128.44 226.81 109.38 226.81 85.88V79.35C226.81 55.08 207.14 35.41 182.87 35.41H182.88ZM204.51 83.95C204.51 95.99 195.29 105.75 183.93 105.75H181.97C170.6 105.75 161.39 95.99 161.39 83.95V80.61C161.39 68.18 170.9 58.11 182.64 58.11H183.27C195.01 58.11 204.52 68.19 204.52 80.61V83.95H204.51Z" fill="black"/>
<path d="M288.83 35.41C288.83 35.41 270.98 33.64 258.77 44.71V11.51C258.77 5.16 253.62 0 247.26 0C240.91 0 235.75 5.15 235.75 11.51V84.08C235.75 110.98 257.56 132.78 284.45 132.78C311.35 132.78 333.15 110.97 333.15 84.08C333.15 59.6 313.3 35.42 288.82 35.42L288.83 35.41ZM309.95 85.78C309.95 99.24 299.04 110.15 285.58 110.15H283.15C269.69 110.15 258.78 99.24 258.78 85.78V83.35C258.78 69.89 269.69 58.98 283.15 58.98H285.58C299.04 58.98 309.95 69.89 309.95 83.35V85.78Z" fill="black"/>
<path d="M355.69 35.36C362.04 35.36 367.2 40.38 367.2 46.56V119C367.2 125.19 362.05 130.2 355.69 130.2C349.34 130.2 344.18 125.18 344.18 119V46.56C344.18 40.37 349.33 35.36 355.69 35.36Z" fill="black"/>
<path d="M355.69 28.35C362.986 28.35 368.9 22.4357 368.9 15.14C368.9 7.84431 362.986 1.92999 355.69 1.92999C348.394 1.92999 342.48 7.84431 342.48 15.14C342.48 22.4357 348.394 28.35 355.69 28.35Z" fill="black"/>
<path d="M405.2 13.44C405.2 7.08319 400.049 1.92999 393.695 1.92999C387.341 1.92999 382.19 7.08319 382.19 13.44V118.69C382.19 125.047 387.341 130.2 393.695 130.2C400.049 130.2 405.2 125.047 405.2 118.69V13.44Z" fill="black"/>
<path d="M430.11 34.31C436.46 34.31 441.62 39.38 441.62 45.64V118.89C441.62 125.15 436.47 130.22 430.11 130.22C423.76 130.22 418.6 125.15 418.6 118.89V45.63C418.6 39.37 423.75 34.3 430.11 34.3V34.31Z" fill="black"/>
<path d="M430.11 27.3C437.406 27.3 443.32 21.3857 443.32 14.09C443.32 6.79432 437.406 0.880005 430.11 0.880005C422.814 0.880005 416.9 6.79432 416.9 14.09C416.9 21.3857 422.814 27.3 430.11 27.3Z" fill="black"/>
<path d="M455.01 12.38V84.77C455.01 109.86 475.35 130.2 500.44 130.2H506.69C513.13 130.2 518.36 124.98 518.36 118.53C518.36 112.09 513.14 106.86 506.69 106.86H499.93C487.84 106.86 478.03 97.06 478.03 84.96V58.97H506.58C513.09 58.97 518.36 53.69 518.36 47.19C518.36 40.68 513.08 35.41 506.58 35.41H478.03V12.38C478.03 6.03 472.88 0.869995 466.52 0.869995C460.17 0.869995 455.01 6.02 455.01 12.38Z" fill="black"/>
</g>
</g>
<defs>
<clipPath id="clip0_9_18">
<rect width="518" height="133" fill="white"/>
</clipPath>
</defs>
</svg>
